<?xml version="1.0" encoding="utf-8"?>
<!-- Generator: Adobe Illustrator 19.0.1, SVG Export Plug-In . SVG Version: 6.00 Build 0)  -->
<svg version="1.1" id="Layer_1" xmlns="http://www.w3.org/2000/svg" xmlns:xlink="http://www.w3.org/1999/xlink" x="0px" y="0px"
	 viewBox="-279 279 16 19" style="enable-background:new -279 279 16 19;" xml:space="preserve">
<style type="text/css">
	.st0{fill:#FFFFFF;}
</style>
<title>phone (1)</title>
<desc>Created with Sketch.</desc>
<g id="Page-1">
	<g id="Desktop-Copy-3" transform="translate(-71.000000, -5426.000000)">
		<g id="phone-_x28_1_x29_" transform="translate(71.000000, 5426.000000)">
			<path id="Path" class="st0" d="M-263.4,293v2.7c0,0.5-0.2,1-0.5,1.4c-0.3,0.3-0.7,0.5-1.2,0.5c-2.3-0.3-4.6-1.3-6.6-2.8
				c-1.8-1.4-3.4-3.3-4.6-5.5c-1.3-2.4-2.1-5.1-2.3-7.9c0-0.5,0.1-1,0.4-1.4s0.7-0.6,1.1-0.6h2.3c0.8,0,1.4,0.7,1.5,1.6
				s0.3,1.7,0.5,2.6c0.2,0.7,0.1,1.4-0.3,1.9l-1,1.2c1.1,2.3,2.7,4.2,4.6,5.5l1-1.2c0.4-0.5,1.1-0.7,1.6-0.4
				c0.7,0.3,1.4,0.5,2.1,0.6C-264,291.3-263.4,292.1-263.4,293z"/>
		</g>
	</g>
</g>
</svg>
