<?xml version="1.0" encoding="UTF-8"?>
<svg width="16px" height="19px" viewBox="0 0 16 19" version="1.1" xmlns="http://www.w3.org/2000/svg" xmlns:xlink="http://www.w3.org/1999/xlink">
    <!-- Generator: Sketch 52.2 (67145) - http://www.bohemiancoding.com/sketch -->
    <title>phone (1)</title>
    <desc>Created with Sketch.</desc>
    <g id="Page-1" stroke="none" stroke-width="1" fill="none" fill-rule="evenodd" opacity="0.7">
        <g id="Desktop-Copy-3" transform="translate(-71.000000, -5426.000000)" fill="#000000">
            <g id="phone-(1)" transform="translate(71.000000, 5426.000000)">
                <path d="M15.1661908,13.6261917 L15.1661908,16.3660245 C15.1679339,16.8803323 14.9885473,17.3716878 14.6721014,17.7193785 C14.3556555,18.0670693 13.9314777,18.2388721 13.5037768,18.1925797 C11.1572061,17.8872169 8.9031597,16.926909 6.92275243,15.3888175 C5.08023958,13.9866294 3.51811032,12.1157875 2.34730099,9.90915183 C1.05853211,7.52659685 0.256504993,4.81397109 0.00619500699,1.99103498 C-0.0323354718,1.4803962 0.110112666,0.973874255 0.398742645,0.595200711 C0.687372624,0.216527168 1.0956056,0.000572633445 1.52371973,8.9792489e-05 L3.81144545,8.9792489e-05 C4.57696733,-0.0089335338 5.22945476,0.663099638 5.33659594,1.57092728 C5.43315551,2.44773447 5.61222834,3.30864513 5.8703986,4.13723735 C6.07990471,4.80472915 5.94590505,5.5572071 5.52723975,6.06425311 L4.55876919,7.22411567 C5.64433735,9.51054801 7.22507857,11.40368 9.13422063,12.7037813 L10.1026912,11.5439188 C10.5260682,11.0425156 11.1543777,10.8820345 11.7117249,11.1329438 C12.403589,11.4421345 13.1224385,11.6565962 13.8545614,11.7722382 C14.6213786,11.901796 15.1854001,12.6990255 15.1661908,13.6261917 Z" id="Path"></path>
            </g>
        </g>
    </g>
</svg>